<svg xmlns="http://www.w3.org/2000/svg" viewBox="0 0 4000 594.516">
  <!-- Logo Icon - Red Theme -->
  <g id="icon">
    <path
      d="M 0,0 -90.883,157.413 H 64.324 c 16.382,0 31.646,-8.812 39.835,-23 L 181.764,0 Z"
      fill="#ff2a00"
      transform="matrix(1.3333333,0,0,-1.3333333,349.79693,271.7368)" />
    <path
      d="M 0,0 90.883,157.413 H 272.647 L 195.044,22.999 C 186.853,8.812 171.589,0 155.206,0 Z"
      fill="#b30000"
      transform="matrix(1.3333333,0,0,-1.3333333,228.61987,532.6628)" />
    <path
      d="M 0,0 C -8.189,14.188 -8.189,31.815 0.002,46.002 L 77.605,180.416 168.488,23.001 77.605,-134.413 Z"
      fill="#ff0000"
      transform="matrix(1.3333333,0,0,-1.3333333,80.9424,327.92613)" />
  </g>
  <!-- EPIC Text - uses currentColor for light/dark mode -->
  <g id="text" fill="currentColor">
    <path
      d="M 0,0 H -116.758 V -28.172 H -83.377 0 c 28.481,0 49.92,-10.106 49.92,-43.792 0,-33.991 -20.212,-44.404 -50.224,-44.71 h -83.073 -6.534 c -14.828,0 -26.847,-12.02 -26.847,-26.847 v -71.149 h 33.381 v 69.823 h 82.769 c 45.932,0 84.213,22.66 84.213,72.883 C 83.605,-23.273 48.998,0 0,0"
      transform="matrix(1.3333333,0,0,-1.3333333,1657.6588,148.44107)" />
    <path
      d="M 0,0 H 95.263 V -28.785 H 60.661 -0.613 c -44.711,0 -72.883,-35.218 -72.883,-80.233 0,-45.018 28.785,-77.479 72.883,-77.479 h 61.274 34.602 v -28.479 H 0 c -63.697,0 -106.573,46.241 -106.877,107.488 C -106.877,-46.241 -63.393,0 0,0"
      transform="matrix(1.3333333,0,0,-1.3333333,2341.8733,148.03227)" />
    <path
      d="M 0,0 H -79.658 V -28.785 H 151.629 V 0 Z"
      transform="matrix(1.3333333,0,0,-1.3333333,1085.0195,396.28653)" />
    <path
      d="m 0,0 v -27.868 h 79.658 83.134 V 0 H 79.658 Z"
      transform="matrix(1.3333333,0,0,-1.3333333,978.80947,273.38227)" />
    <path
      d="m 734.107,305.464 h 231.287 v 28.785 H 734.107 Z"
      transform="matrix(1.3333333,0,0,-1.3333333,0,594.516)" />
    <path
      d="m 1475.135,119.887 h 33.381 V 334.25 h -33.381 z"
      transform="matrix(1.3333333,0,0,-1.3333333,0,594.516)" />
    <!-- Vertical Separator -->
    <rect x="2650" y="140" width="8" height="320" opacity="0.3" />
    <!-- Flowstate Text -->
    <text x="2850" y="405" font-family="system-ui, -apple-system, sans-serif" font-size="285" font-weight="300">Flowstate</text>
  </g>
</svg>
